<?xml version="1.0" encoding="UTF-8"?>
<svg id="Calque_2" data-name="Calque 2" xmlns="http://www.w3.org/2000/svg" viewBox="0 0 121.92 122.36">
  <defs>
    <style>
      .cls-1 {
        fill: #262626;
      }
      @media (prefers-color-scheme: dark) {
        .cls-1 {
          fill: #ffffff;
        }
      }
    </style>
  </defs>
  <g id="Calque_1-2" data-name="Calque 1">
    <path class="cls-1" d="M64.17,0l-21.05,13.24c-1.9,1.2-3.06,3.29-3.06,5.54v39.76l20.52-10.4c2.2-1.11,3.59-3.37,3.59-5.84V0"/>
    <path class="cls-1" d="M0,98.07l14.96-6.66c2.36-1.05,3.88-3.39,3.88-5.98V28.51l-15.77,9.92c-1.9,1.2-3.06,3.29-3.06,5.54v54.11Z"/>
    <path class="cls-1" d="M91.55,105.54l25.86-8.46c2.69-.88,4.51-3.39,4.51-6.22V15.56l-26.8,13.67c-2.19,1.12-3.57,3.37-3.57,5.83v70.48Z"/>
    <path class="cls-1" d="M40.03,122.36l19.6-6.41c2.69-.88,4.51-3.39,4.51-6.22v-41.44l-20.24,9.08c-2.35,1.06-3.86,3.39-3.86,5.97v39.01Z"/>
  </g>
</svg>