<?xml version="1.0" encoding="UTF-8"?>
<svg id="Calque_2" data-name="Calque 2" xmlns="http://www.w3.org/2000/svg" viewBox="0 0 284.12 26.02">
  <g id="Calque_1-2" data-name="Calque 1">
    <g>
      <path d="M59.14,12.82V0h5.14v12.82c0,7.29-3.61,13.2-12.55,13.2s-12.55-5.91-12.55-13.2V0h5.14v12.82c0,5.43,1.7,8.7,7.41,8.7s7.41-3.27,7.41-8.7h0Z"/>
      <path d="M102.41,18.57c0,4.86-3.36,7.05-8.75,7.05h-14.31V0h12.15C99.38,0,100.49,3.55,100.49,6.51c0,2.25-.69,3.97-2.68,4.97,3.49.97,4.6,3.4,4.6,7.08ZM84.48,4.31v5.43h7.52c2.83,0,3.75-1,3.75-2.64s-.67-2.78-4.25-2.78h-7.01ZM97.07,17.82c0-2.08-.59-3.77-5.07-3.77h-7.52v7.26h9.17c2.61,0,3.41-1.4,3.41-3.49Z"/>
      <polygon points="19.01 0 19.01 9.78 5.14 14.85 5.14 0 0 0 0 25.61 5.14 25.61 5.14 19.37 19.01 14.43 19.01 25.61 24.16 25.61 24.16 0 19.01 0"/>
    </g>
    <g>
      <path d="M149.68,1.83h-8.6V0h19.25v1.83h-8.64v23.78h-2.01V1.83Z"/>
      <path d="M196,13.03h-13.06v10.76h14.31l-.29,1.83h-15.99V0h15.7v1.83h-13.72v9.37h13.06v1.83Z"/>
      <path d="M222.32,16.76l-3.26,8.86h-2.01L226.45,0h2.34l9.81,25.61h-2.16l-3.33-8.86h-10.79ZM232.45,14.93c-2.85-7.61-4.32-11.27-4.83-12.99h-.04c-.62,1.94-2.27,6.48-4.57,12.99h9.44Z"/>
      <path d="M282.15,13.83c0-5.01.04-9.81.15-12.37h-.11c-1.02,3.44-6.22,16.06-9.48,24.15h-1.94c-2.45-6.26-7.83-20.31-9-24.19h-.07c.18,2.93.26,8.89.26,13.28v10.9h-1.97V0h2.96c3.51,8.78,7.94,20.27,8.89,23.16h.07c.58-1.87,5.71-14.64,9.29-23.16h2.93v25.61h-1.98v-11.78Z"/>
    </g>
  </g>
</svg>