<?xml version="1.0" encoding="utf-8"?>
<!-- Generator: Adobe Illustrator 26.5.0, SVG Export Plug-In . SVG Version: 6.00 Build 0)  -->
<svg version="1.1" id="Calque_1" xmlns="http://www.w3.org/2000/svg" xmlns:xlink="http://www.w3.org/1999/xlink" x="0px" y="0px"
	 viewBox="0 0 375.9 122.4" style="enable-background:new 0 0 375.9 122.4;" xml:space="preserve">
<g id="Calque_2_00000103979112938805141780000006980354235531064460_">
	<g id="Calque_1-2">
		<g>
			<g>
				<path d="M210.1,61.1v-9.2h3.7v9.2c0,5.2-2.6,9.5-9,9.5s-9-4.3-9-9.5v-9.2h3.7v9.2c0,3.9,1.2,6.2,5.3,6.2
					C208.9,67.3,210.1,64.9,210.1,61.1z"/>
				<path d="M241.2,65.2c0,3.5-2.4,5-6.3,5h-10.3V51.8h8.7c5.7,0,6.5,2.6,6.5,4.7c0,1.6-0.5,2.9-1.9,3.6
					C240.4,60.8,241.2,62.5,241.2,65.2z M228.3,54.9v3.9h5.4c2,0,2.7-0.7,2.7-1.9c0-1.2-0.5-2-3.1-2H228.3z M237.4,64.6
					c0-1.5-0.4-2.7-3.7-2.7h-5.4v5.2h6.6C236.8,67.1,237.4,66.1,237.4,64.6z"/>
				<path d="M260.6,59.8h6.1v3.1h-6.1v6.2H257v-6.2h-6.1v-3.1h6.1v-6.2h3.7V59.8z"/>
				<path d="M291.2,61.1v-9.2h3.7v9.2c0,5.2-2.6,9.5-9,9.5c-6.4,0-9-4.3-9-9.5v-9.2h3.7v9.2c0,3.9,1.2,6.2,5.3,6.2
					C289.9,67.3,291.2,64.9,291.2,61.1L291.2,61.1z"/>
				<polygon points="181.2,51.8 181.2,58.9 171.2,62.5 171.2,51.8 167.6,51.8 167.6,70.2 171.2,70.2 171.2,65.8 181.2,62.2 
					181.2,70.2 184.9,70.2 184.9,51.8 				"/>
				<path d="M323.1,57.9c0-2.2-1.3-6.1-6.5-6.1h-10.9v18.4h3.7v-2.7l9.9-3.5h0l0,0C322.2,63,323.1,60.1,323.1,57.9z M317.1,61.5
					l-7.7,2.8V55h7.2c2.6,0,3.1,2.2,3.1,3.4C319.7,59.5,319.1,60.7,317.1,61.5L317.1,61.5z"/>
			</g>
			<g>
				<path d="M81.6,59.3l14.8-7.5c1.6-0.8,2.6-2.4,2.6-4.2V17.2l-15.1,9.5c-1.4,0.9-2.2,2.4-2.2,4L81.6,59.3z"/>
				<path d="M52.8,87.7l10.8-4.8c1.7-0.8,2.8-2.5,2.8-4.3V37.7L55,44.8c-1.4,0.9-2.2,2.4-2.2,4V87.7z"/>
				<path d="M118.6,93.1l18.6-6.1c1.9-0.6,3.2-2.4,3.2-4.5V28.4l-19.3,9.8c-1.6,0.8-2.6,2.4-2.6,4.2V93.1z"/>
				<path d="M81.5,105.2l14.1-4.6c1.9-0.6,3.2-2.4,3.2-4.5V66.3l-14.6,6.5c-1.7,0.8-2.8,2.5-2.8,4.3L81.5,105.2z"/>
			</g>
		</g>
	</g>
</g>
</svg>
